<svg xmlns="http://www.w3.org/2000/svg" viewBox="0 0 12.092 8.859"><defs><style>.a{fill:#fff;}</style></defs><title>spot_tel</title><path class="a" d="M3.8,1.722H2.392l.539,1.393a.521.521,0,0,1,.052.236c0,.119-.052.211-.223.25L.368,4.009C.131,4.035,0,3.9,0,3.64,0,3.062.079,1.8.71,1.314,1.814.46,3.259,0,6.046,0s4.232.46,5.336,1.314c.631.486.71,1.748.71,2.326,0,.263-.131.4-.368.369L9.332,3.6c-.171-.039-.224-.131-.224-.25a.522.522,0,0,1,.053-.236L9.7,1.722H8.294v.841c0,.92.591,1.6,1.564,2.55a4.141,4.141,0,0,1,1.209,3.128c0,.421-.158.618-.605.618H1.63c-.447,0-.6-.2-.6-.618A4.141,4.141,0,0,1,2.234,5.113C3.207,4.166,3.8,3.483,3.8,2.563ZM8.254,5.928A2.208,2.208,0,1,0,6.046,8.136,2.2,2.2,0,0,0,8.254,5.928ZM7.163,1.722H4.929V2.984H7.163Z"/></svg>