<svg xmlns="http://www.w3.org/2000/svg" viewBox="0 0 14.337 17.663"><defs><style>.a{fill:#fff;}</style></defs><title>spot_googlemap</title><path class="a" d="M7.281,14.709c-.09,0,5.307-6.239,5.307-9.126A5.579,5.579,0,0,0,7.281,0,5.579,5.579,0,0,0,1.974,5.583C1.974,8.47,7.191,14.709,7.281,14.709Zm-3.1-9.358a3.1,3.1,0,1,1,3.1,3.1A3.1,3.1,0,0,1,4.185,5.351Z"/><path class="a" d="M10.509,12.091c-.4.556-.788,1.079-1.145,1.548,2.205.223,3.048.819,3.272,1.127-.28.384-2.131,1.215-5.468,1.215S1.98,15.15,1.7,14.766c.228-.313,1.11-.925,3.389-1.139-.358-.471-.745-1-1.14-1.556C1.526,12.436,0,13.305,0,14.766c0,2,3.6,2.9,7.168,2.9s7.169-.9,7.169-2.9C14.337,13.33,12.875,12.466,10.509,12.091Z"/></svg>